<svg xmlns="http://www.w3.org/2000/svg" xmlns:xlink="http://www.w3.org/1999/xlink" width="2000" zoomAndPan="magnify" viewBox="0 0 1500 1499.999933" height="2000" preserveAspectRatio="xMidYMid meet" version="1.0"><defs><clipPath id="f19352f7b8"><path d="M 827 292 L 1280.953125 292 L 1280.953125 744 L 827 744 Z M 827 292 " clip-rule="nonzero"/></clipPath><clipPath id="877dc7b155"><path d="M 218.953125 893 L 672 893 L 672 1346 L 218.953125 1346 Z M 218.953125 893 " clip-rule="nonzero"/></clipPath><clipPath id="becfea5b35"><path d="M 824 896 L 1277 896 L 1277 1349.90625 L 824 1349.90625 Z M 824 896 " clip-rule="nonzero"/></clipPath><clipPath id="fe05a6b67b"><path d="M 223 287.90625 L 675 287.90625 L 675 741 L 223 741 Z M 223 287.90625 " clip-rule="nonzero"/></clipPath><clipPath id="6527d32a25"><path d="M 471.191406 530.863281 L 1028.441406 530.863281 L 1028.441406 1183.363281 L 471.191406 1183.363281 Z M 471.191406 530.863281 " clip-rule="nonzero"/></clipPath><clipPath id="bcf16b04bd"><path d="M 642 206 L 1096 206 L 1096 568 L 642 568 Z M 642 206 " clip-rule="nonzero"/></clipPath><clipPath id="915148925c"><path d="M 908.960938 30.367188 L 1133.289062 254.695312 L 784.863281 603.121094 L 560.53125 378.792969 Z M 908.960938 30.367188 " clip-rule="nonzero"/></clipPath><clipPath id="e185a8b081"><path d="M 908.960938 30.367188 L 1133.289062 254.695312 L 784.863281 603.121094 L 560.53125 378.792969 Z M 908.960938 30.367188 " clip-rule="nonzero"/></clipPath><clipPath id="76a2f44be0"><path d="M 564.015625 632.96875 L 935.984375 632.96875 L 935.984375 1004.9375 L 564.015625 1004.9375 Z M 564.015625 632.96875 " clip-rule="nonzero"/></clipPath><clipPath id="b4230f6c18"><path d="M 750 632.96875 C 647.285156 632.96875 564.015625 716.238281 564.015625 818.953125 C 564.015625 921.667969 647.285156 1004.9375 750 1004.9375 C 852.714844 1004.9375 935.984375 921.667969 935.984375 818.953125 C 935.984375 716.238281 852.714844 632.96875 750 632.96875 Z M 750 632.96875 " clip-rule="nonzero"/></clipPath><clipPath id="51d957a5ac"><path d="M 0.015625 0.96875 L 371.984375 0.96875 L 371.984375 372.9375 L 0.015625 372.9375 Z M 0.015625 0.96875 " clip-rule="nonzero"/></clipPath><clipPath id="7549961df8"><path d="M 186 0.96875 C 83.285156 0.96875 0.015625 84.238281 0.015625 186.953125 C 0.015625 289.667969 83.285156 372.9375 186 372.9375 C 288.714844 372.9375 371.984375 289.667969 371.984375 186.953125 C 371.984375 84.238281 288.714844 0.96875 186 0.96875 Z M 186 0.96875 " clip-rule="nonzero"/></clipPath><clipPath id="511cc49480"><rect x="0" width="372" y="0" height="373"/></clipPath></defs><g clip-path="url(#f19352f7b8)"><path fill="#5ce1e6" d="M 1086.011719 743.382812 L 1172.964844 743.382812 C 1171.363281 734.226562 1169.460938 725.132812 1167.265625 716.101562 C 1165.070312 707.074219 1162.582031 698.121094 1159.800781 689.253906 C 1157.019531 680.386719 1153.953125 671.617188 1150.601562 662.949219 C 1147.25 654.28125 1143.617188 645.730469 1139.707031 637.300781 C 1135.796875 628.867188 1131.617188 620.574219 1127.164062 612.414062 C 1122.714844 604.257812 1118 596.25 1113.027344 588.402344 C 1108.054688 580.550781 1102.828125 572.867188 1097.355469 565.359375 C 1091.878906 557.847656 1086.167969 550.523438 1080.214844 543.386719 L 1280.621094 292.253906 L 1026.382812 490.386719 C 1019.3125 484.390625 1012.050781 478.632812 1004.601562 473.109375 C 997.15625 467.585938 989.535156 462.3125 981.742188 457.285156 C 973.949219 452.261719 966.003906 447.492188 957.902344 442.984375 C 949.796875 438.476562 941.558594 434.238281 933.179688 430.265625 C 924.800781 426.296875 916.300781 422.601562 907.683594 419.183594 C 899.0625 415.765625 890.339844 412.632812 881.515625 409.785156 C 872.695312 406.933594 863.785156 404.375 854.796875 402.109375 C 845.804688 399.839844 836.75 397.863281 827.632812 396.1875 L 827.632812 483.140625 C 831.558594 484.046875 835.46875 485.023438 839.359375 486.066406 C 843.25 487.109375 847.121094 488.222656 850.976562 489.402344 C 854.828125 490.582031 858.65625 491.832031 862.464844 493.144531 C 866.273438 494.460938 870.058594 495.839844 873.820312 497.289062 C 877.578125 498.734375 881.3125 500.25 885.019531 501.828125 C 888.726562 503.40625 892.40625 505.050781 896.054688 506.757812 C 899.703125 508.464844 903.324219 510.238281 906.910156 512.070312 C 910.496094 513.90625 914.050781 515.804688 917.570312 517.765625 C 921.089844 519.722656 924.574219 521.746094 928.027344 523.828125 C 931.476562 525.910156 934.886719 528.050781 938.261719 530.253906 C 941.636719 532.457031 944.96875 534.71875 948.265625 537.035156 C 951.558594 539.355469 954.8125 541.730469 958.023438 544.164062 C 961.234375 546.597656 964.402344 549.089844 967.527344 551.632812 C 970.648438 554.179688 973.726562 556.777344 976.761719 559.429688 C 979.792969 562.082031 982.777344 564.789062 985.714844 567.546875 C 988.652344 570.304688 991.539062 573.113281 994.378906 575.972656 C 997.21875 578.832031 1000.007812 581.738281 1002.742188 584.695312 C 1005.480469 587.652344 1008.164062 590.65625 1010.792969 593.710938 C 1013.425781 596.761719 1016.003906 599.859375 1018.523438 603 C 1021.046875 606.140625 1023.511719 609.328125 1025.921875 612.554688 C 1028.335938 615.785156 1030.6875 619.054688 1032.984375 622.367188 C 1035.277344 625.675781 1037.515625 629.027344 1039.691406 632.417969 C 1041.871094 635.808594 1043.988281 639.234375 1046.046875 642.699219 C 1048.101562 646.164062 1050.097656 649.664062 1052.035156 653.195312 C 1053.96875 656.730469 1055.839844 660.296875 1057.648438 663.898438 C 1059.457031 667.5 1061.203125 671.128906 1062.886719 674.792969 C 1064.566406 678.453125 1066.183594 682.140625 1067.734375 685.859375 C 1069.289062 689.578125 1070.773438 693.324219 1072.195312 697.09375 C 1073.617188 700.863281 1074.96875 704.660156 1076.257812 708.476562 C 1077.542969 712.292969 1078.761719 716.132812 1079.914062 719.996094 C 1081.066406 723.855469 1082.152344 727.734375 1083.167969 731.632812 C 1084.183594 735.535156 1085.132812 739.449219 1086.011719 743.382812 Z M 1086.011719 743.382812 " fill-opacity="1" fill-rule="evenodd"/></g><g clip-path="url(#877dc7b155)"><path fill="#5ce1e6" d="M 413.566406 893.480469 L 326.613281 893.480469 C 328.214844 902.625 330.109375 911.703125 332.304688 920.722656 C 334.496094 929.742188 336.980469 938.679688 339.757812 947.539062 C 342.53125 956.394531 345.59375 965.152344 348.9375 973.8125 C 352.28125 982.46875 355.90625 991.007812 359.808594 999.429688 C 363.707031 1007.855469 367.878906 1016.140625 372.320312 1024.289062 C 376.761719 1032.441406 381.460938 1040.4375 386.425781 1048.285156 C 391.386719 1056.128906 396.597656 1063.804688 402.058594 1071.308594 C 407.519531 1078.8125 413.21875 1086.132812 419.15625 1093.269531 L 218.953125 1345.226562 L 472.570312 1146.890625 C 479.65625 1152.914062 486.933594 1158.699219 494.398438 1164.246094 C 501.867188 1169.792969 509.507812 1175.085938 517.320312 1180.132812 C 525.132812 1185.179688 533.105469 1189.960938 541.230469 1194.484375 C 549.359375 1199.007812 557.625 1203.257812 566.03125 1207.238281 C 574.4375 1211.21875 582.964844 1214.921875 591.613281 1218.34375 C 600.261719 1221.765625 609.015625 1224.898438 617.871094 1227.746094 C 626.722656 1230.59375 635.664062 1233.148438 644.683594 1235.40625 C 653.707031 1237.667969 662.792969 1239.632812 671.941406 1241.296875 L 671.941406 1154.34375 C 668.015625 1153.425781 664.105469 1152.441406 660.210938 1151.386719 C 656.320312 1150.332031 652.445312 1149.210938 648.59375 1148.023438 C 644.738281 1146.832031 640.90625 1145.574219 637.097656 1144.25 C 633.289062 1142.925781 629.503906 1141.539062 625.742188 1140.082031 C 621.980469 1138.625 618.246094 1137.101562 614.539062 1135.515625 C 610.832031 1133.925781 607.152344 1132.273438 603.503906 1130.558594 C 599.851562 1128.839844 596.234375 1127.0625 592.648438 1125.21875 C 589.058594 1123.375 585.507812 1121.46875 581.984375 1119.5 C 578.464844 1117.53125 574.980469 1115.503906 571.53125 1113.414062 C 568.082031 1111.324219 564.671875 1109.171875 561.296875 1106.964844 C 557.921875 1104.753906 554.589844 1102.484375 551.292969 1100.160156 C 548 1097.832031 544.746094 1095.449219 541.535156 1093.007812 C 538.324219 1090.566406 535.160156 1088.070312 532.035156 1085.519531 C 528.914062 1082.96875 525.835938 1080.363281 522.800781 1077.703125 C 519.769531 1075.042969 516.785156 1072.332031 513.847656 1069.566406 C 510.914062 1066.800781 508.023438 1063.988281 505.1875 1061.121094 C 502.347656 1058.257812 499.5625 1055.34375 496.824219 1052.378906 C 494.089844 1049.414062 491.40625 1046.40625 488.777344 1043.347656 C 486.144531 1040.289062 483.570312 1037.1875 481.046875 1034.042969 C 478.527344 1030.894531 476.058594 1027.703125 473.648438 1024.46875 C 471.238281 1021.234375 468.886719 1017.960938 466.59375 1014.644531 C 464.296875 1011.328125 462.0625 1007.96875 459.882812 1004.574219 C 457.707031 1001.179688 455.589844 997.75 453.53125 994.28125 C 451.476562 990.8125 449.480469 987.304688 447.546875 983.765625 C 445.609375 980.226562 443.738281 976.65625 441.929688 973.050781 C 440.121094 969.445312 438.375 965.8125 436.695312 962.144531 C 435.011719 958.480469 433.394531 954.785156 431.84375 951.0625 C 430.292969 947.339844 428.804688 943.59375 427.386719 939.816406 C 425.964844 936.042969 424.609375 932.242188 423.324219 928.421875 C 422.035156 924.601562 420.816406 920.757812 419.664062 916.890625 C 418.511719 913.027344 417.425781 909.140625 416.410156 905.238281 C 415.390625 901.335938 414.445312 897.417969 413.566406 893.480469 Z M 413.566406 893.480469 " fill-opacity="1" fill-rule="evenodd"/></g><g clip-path="url(#becfea5b35)"><path fill="#5ce1e6" d="M 1172.34375 896.585938 L 1085.390625 896.585938 C 1084.476562 900.519531 1083.5 904.433594 1082.449219 908.332031 C 1081.402344 912.230469 1080.285156 916.109375 1079.101562 919.96875 C 1077.914062 923.828125 1076.664062 927.667969 1075.34375 931.480469 C 1074.023438 935.296875 1072.636719 939.089844 1071.1875 942.855469 C 1069.734375 946.621094 1068.214844 950.363281 1066.632812 954.074219 C 1065.046875 957.789062 1063.398438 961.472656 1061.683594 965.128906 C 1059.972656 968.785156 1058.195312 972.40625 1056.355469 976 C 1054.515625 979.59375 1052.609375 983.152344 1050.644531 986.679688 C 1048.679688 990.207031 1046.652344 993.695312 1044.566406 997.152344 C 1042.476562 1000.605469 1040.328125 1004.023438 1038.121094 1007.402344 C 1035.914062 1010.785156 1033.644531 1014.125 1031.320312 1017.421875 C 1028.996094 1020.722656 1026.613281 1023.980469 1024.171875 1027.199219 C 1021.734375 1030.414062 1019.238281 1033.585938 1016.6875 1036.714844 C 1014.136719 1039.84375 1011.53125 1042.929688 1008.871094 1045.964844 C 1006.210938 1049.003906 1003.5 1051.992188 1000.734375 1054.933594 C 997.96875 1057.875 995.15625 1060.769531 992.289062 1063.613281 C 989.421875 1066.457031 986.507812 1069.246094 983.542969 1071.988281 C 980.582031 1074.730469 977.570312 1077.417969 974.511719 1080.050781 C 971.453125 1082.6875 968.347656 1085.269531 965.199219 1087.792969 C 962.050781 1090.320312 958.859375 1092.789062 955.621094 1095.203125 C 952.386719 1097.617188 949.109375 1099.976562 945.792969 1102.273438 C 942.472656 1104.574219 939.113281 1106.8125 935.71875 1108.996094 C 932.320312 1111.175781 928.886719 1113.296875 925.414062 1115.355469 C 921.941406 1117.417969 918.4375 1119.417969 914.894531 1121.351562 C 911.351562 1123.289062 907.777344 1125.164062 904.171875 1126.976562 C 900.5625 1128.789062 896.925781 1130.539062 893.253906 1132.222656 C 889.585938 1133.90625 885.890625 1135.523438 882.164062 1137.078125 C 878.4375 1138.632812 874.683594 1140.121094 870.90625 1141.542969 C 867.128906 1142.964844 863.328125 1144.320312 859.5 1145.609375 C 855.675781 1146.898438 851.828125 1148.121094 847.960938 1149.277344 C 844.089844 1150.429688 840.203125 1151.515625 836.296875 1152.53125 C 832.390625 1153.550781 828.46875 1154.5 824.527344 1155.378906 L 824.527344 1242.332031 C 833.675781 1240.707031 842.765625 1238.785156 851.789062 1236.566406 C 860.8125 1234.347656 869.757812 1231.839844 878.617188 1229.039062 C 887.476562 1226.238281 896.238281 1223.152344 904.898438 1219.78125 C 913.558594 1216.410156 922.101562 1212.761719 930.523438 1208.835938 C 938.945312 1204.90625 947.230469 1200.710938 955.378906 1196.242188 C 963.527344 1191.777344 971.523438 1187.046875 979.363281 1182.058594 C 987.203125 1177.070312 994.875 1171.832031 1002.375 1166.34375 C 1009.875 1160.859375 1017.1875 1155.132812 1024.3125 1149.167969 L 1276.273438 1349.574219 L 1077.9375 1095.339844 C 1083.929688 1088.261719 1089.6875 1080.996094 1095.210938 1073.546875 C 1100.734375 1066.09375 1106.011719 1058.472656 1111.039062 1050.679688 C 1116.070312 1042.886719 1120.839844 1034.9375 1125.355469 1026.835938 C 1129.867188 1018.734375 1134.113281 1010.492188 1138.09375 1002.117188 C 1142.074219 993.738281 1145.777344 985.238281 1149.207031 976.621094 C 1152.632812 968.003906 1155.78125 959.285156 1158.644531 950.460938 C 1161.507812 941.640625 1164.082031 932.734375 1166.367188 923.746094 C 1168.652344 914.757812 1170.644531 905.703125 1172.34375 896.585938 Z M 1172.34375 896.585938 " fill-opacity="1" fill-rule="evenodd"/></g><g clip-path="url(#fe05a6b67b)"><path fill="#5ce1e6" d="M 223.300781 287.90625 L 421.433594 541.523438 C 415.425781 548.617188 409.65625 555.902344 404.125 563.375 C 398.59375 570.84375 393.308594 578.488281 388.277344 586.304688 C 383.246094 594.121094 378.472656 602.09375 373.960938 610.222656 C 369.449219 618.351562 365.210938 626.617188 361.238281 635.023438 C 357.265625 643.429688 353.574219 651.953125 350.160156 660.601562 C 346.746094 669.25 343.617188 677.996094 340.773438 686.847656 C 337.929688 695.699219 335.378906 704.632812 333.121094 713.652344 C 330.859375 722.667969 328.898438 731.75 327.234375 740.898438 L 414.1875 740.898438 C 415.097656 736.972656 416.074219 733.066406 417.121094 729.175781 C 418.167969 725.285156 419.28125 721.414062 420.464844 717.5625 C 421.648438 713.710938 422.898438 709.882812 424.214844 706.074219 C 425.53125 702.269531 426.914062 698.484375 428.363281 694.726562 C 429.8125 690.96875 431.328125 687.234375 432.90625 683.527344 C 434.488281 679.824219 436.132812 676.148438 437.84375 672.5 C 439.550781 668.851562 441.324219 665.234375 443.160156 661.648438 C 444.996094 658.0625 446.894531 654.511719 448.855469 650.992188 C 450.816406 647.472656 452.839844 643.988281 454.921875 640.539062 C 457.007812 637.089844 459.148438 633.679688 461.351562 630.308594 C 463.554688 626.933594 465.816406 623.601562 468.136719 620.308594 C 470.457031 617.015625 472.832031 613.761719 475.265625 610.550781 C 477.699219 607.339844 480.1875 604.175781 482.734375 601.050781 C 485.277344 597.929688 487.878906 594.851562 490.53125 591.820312 C 493.183594 588.789062 495.886719 585.804688 498.644531 582.867188 C 501.402344 579.929688 504.210938 577.042969 507.070312 574.203125 C 509.929688 571.363281 512.835938 568.578125 515.792969 565.839844 C 518.75 563.105469 521.753906 560.421875 524.804688 557.789062 C 527.855469 555.160156 530.953125 552.582031 534.09375 550.058594 C 537.234375 547.539062 540.417969 545.070312 543.648438 542.660156 C 546.875 540.25 550.144531 537.894531 553.453125 535.601562 C 556.765625 533.304688 560.113281 531.066406 563.503906 528.886719 C 566.890625 526.710938 570.316406 524.589844 573.78125 522.535156 C 577.242188 520.476562 580.742188 518.476562 584.273438 516.542969 C 587.808594 514.605469 591.375 512.734375 594.972656 510.921875 C 598.570312 509.113281 602.199219 507.367188 605.859375 505.683594 C 609.519531 504 613.210938 502.382812 616.925781 500.828125 C 620.644531 499.273438 624.386719 497.785156 628.15625 496.363281 C 631.925781 494.941406 635.71875 493.585938 639.535156 492.296875 C 643.351562 491.007812 647.1875 489.785156 651.046875 488.628906 C 654.910156 487.476562 658.785156 486.386719 662.683594 485.371094 C 666.582031 484.351562 670.496094 483.402344 674.425781 482.519531 L 674.425781 395.566406 C 665.277344 397.171875 656.191406 399.070312 647.164062 401.265625 C 638.136719 403.460938 629.191406 405.945312 620.328125 408.722656 C 611.460938 411.5 602.695312 414.558594 594.03125 417.90625 C 585.367188 421.25 576.816406 424.875 568.386719 428.777344 C 559.957031 432.675781 551.660156 436.847656 543.5 441.289062 C 535.339844 445.726562 527.335938 450.425781 519.480469 455.386719 C 511.625 460.347656 503.941406 465.558594 496.425781 471.015625 C 488.910156 476.476562 481.578125 482.171875 474.433594 488.109375 Z M 223.300781 287.90625 " fill-opacity="1" fill-rule="evenodd"/></g><g clip-path="url(#6527d32a25)"><path fill="#0097b2" d="M 749.996094 530.914062 C 596.34375 530.914062 471.300781 655.957031 471.300781 809.609375 C 471.300781 1017.363281 731.074219 1172.5625 742.160156 1179.066406 L 749.996094 1183.679688 L 757.832031 1179.066406 C 768.917969 1172.5625 1028.691406 1017.363281 1028.691406 809.609375 C 1028.691406 655.957031 903.648438 530.914062 749.996094 530.914062 Z M 749.996094 917.992188 C 690.136719 917.992188 641.613281 869.46875 641.613281 809.609375 C 641.613281 749.753906 690.136719 701.226562 749.996094 701.226562 C 809.855469 701.226562 858.378906 749.753906 858.378906 809.609375 C 858.378906 869.46875 809.855469 917.992188 749.996094 917.992188 Z M 749.996094 917.992188 " fill-opacity="1" fill-rule="nonzero"/></g><g clip-path="url(#bcf16b04bd)"><g clip-path="url(#915148925c)"><g clip-path="url(#e185a8b081)"><path fill="#0097b2" d="M 733.796875 535.835938 C 692.550781 448.792969 700.632812 339.246094 700.632812 339.246094 C 673.429688 417.964844 699.238281 484.746094 699.238281 484.746094 C 625.308594 421.066406 611.003906 301.375 737.707031 206.542969 C 714.476562 254.472656 816.1875 399.3125 733.878906 483 C 730.484375 500 738.6875 518.800781 742.546875 526.488281 C 793.386719 453.09375 871.910156 355.789062 944.484375 303.324219 C 944.484375 303.324219 880.964844 333.761719 765.644531 476.410156 C 765.042969 181.449219 1047.621094 230.667969 1095.636719 217.042969 C 999.625 297.769531 1044.480469 341.617188 978.542969 409.101562 C 905.3125 484.078125 718.304688 469.113281 749.277344 567.472656 Z M 733.796875 535.835938 " fill-opacity="1" fill-rule="evenodd"/></g></g></g><g clip-path="url(#76a2f44be0)"><g clip-path="url(#b4230f6c18)"><g transform="matrix(1, 0, 0, 1, 564, 632)"><g clip-path="url(#511cc49480)"><g clip-path="url(#51d957a5ac)"><g clip-path="url(#7549961df8)"><path fill="#5ce1e6" d="M 0.015625 0.96875 L 371.984375 0.96875 L 371.984375 372.9375 L 0.015625 372.9375 Z M 0.015625 0.96875 " fill-opacity="1" fill-rule="nonzero"/></g></g></g></g></g></g></svg>